<svg fill="none" height="299" viewBox="0 0 299 299" width="299" xmlns="http://www.w3.org/2000/svg"><path d="m291.549 290.73c9.224-9.223 9.993-23.57 1.666-34.458-72.889-98.252-73.145-121.822-.255-213.4134 8.325-10.6313 7.685-25.8749-1.538-35.0983-9.352-9.35205-24.211-9.86426-35.099-1.79396-93.129 70.32656-113.24 70.45396-213.5411-.12742-11.1447-7.8142-25.2366-7.30199-34.33125 1.79271-9.350805 9.35077-9.99167 23.57127-1.92137 34.71477 73.01742 97.8676 73.27352 121.4376.5122 212.9006-8.45382 11.018-7.941614 25.877 1.53786 35.356 9.22336 9.223 23.82616 9.992 34.97086 1.665 93.5118-70.198 113.3668-70.326 213.4128.512 11.529 7.686 25.619 6.918 34.586-2.05z" fill="#000"/></svg>